<?xml version="1.0" standalone="no"?>
<!DOCTYPE svg PUBLIC "-//W3C//DTD SVG 20010904//EN"
 "http://www.w3.org/TR/2001/REC-SVG-20010904/DTD/svg10.dtd">
<svg version="1.0" xmlns="http://www.w3.org/2000/svg"
 width="512.000000pt" height="512.000000pt" viewBox="0 0 512.000000 512.000000"
 preserveAspectRatio="xMidYMid meet">
<metadata>
Created by potrace 1.14, written by Peter Selinger 2001-2017
</metadata>
<g transform="translate(0.000000,512.000000) scale(0.100000,-0.100000)"
fill="#000000" stroke="none">
<path d="M2437 5104 c-1 -1 -44 -5 -96 -8 -51 -3 -103 -8 -115 -11 -11 -2 -39
-7 -61 -10 -140 -20 -485 -111 -509 -136 -6 -5 -16 -9 -24 -9 -14 0 -52 -17
-192 -83 -393 -186 -769 -519 -1017 -900 -59 -90 -145 -241 -159 -277 -3 -8
-9 -22 -14 -31 -31 -60 -132 -329 -145 -389 -2 -8 -10 -42 -18 -75 -14 -54
-39 -181 -51 -260 -10 -67 -17 -134 -20 -215 -3 -47 -8 -93 -11 -103 -4 -9 -5
-34 -1 -55 3 -20 8 -73 10 -117 7 -115 14 -178 32 -285 21 -121 19 -114 39
-190 9 -36 18 -72 20 -80 9 -43 69 -210 106 -297 46 -108 143 -299 165 -324 8
-8 14 -19 14 -23 0 -15 132 -200 203 -286 124 -149 289 -305 466 -440 105 -81
350 -218 516 -291 106 -46 352 -121 435 -133 8 -1 25 -6 36 -10 24 -7 70 -15
127 -21 20 -2 41 -6 45 -9 39 -24 543 -25 667 -2 11 2 45 8 75 12 59 9 69 10
73 14 1 1 11 3 22 5 91 13 337 83 420 120 17 7 46 19 65 26 81 32 322 159 410
218 96 64 241 174 283 214 13 12 50 48 83 79 287 270 497 596 649 1008 16 45
63 207 69 240 2 14 10 48 16 75 6 28 13 64 16 80 2 17 6 41 8 55 5 25 14 96
22 175 5 49 5 367 -1 415 -13 127 -16 150 -20 171 -3 13 -7 36 -10 52 -3 15
-7 39 -10 55 -8 45 -12 65 -30 138 -22 89 -94 306 -106 319 -5 5 -9 15 -9 23
0 52 -259 504 -337 587 -10 11 -26 30 -34 42 -36 52 -171 194 -283 298 -11 11
-135 114 -170 142 -56 45 -256 169 -356 222 -232 120 -538 222 -773 256 -27 3
-57 8 -67 10 -61 12 -442 28 -453 19z m324 -398 c41 -4 89 -10 106 -15 17 -5
33 -7 36 -5 4 4 178 -35 247 -55 19 -5 51 -14 70 -19 19 -5 49 -15 65 -22 17
-8 32 -14 35 -14 10 -2 95 -39 170 -75 141 -67 340 -196 455 -296 42 -36 215
-207 215 -212 0 -2 10 -14 21 -26 12 -12 42 -49 66 -82 25 -33 48 -62 52 -65
3 -3 11 -14 18 -25 7 -11 37 -62 68 -112 126 -207 239 -506 270 -708 3 -22 11
-69 18 -105 22 -122 15 -500 -13 -645 -5 -27 -12 -62 -14 -76 -7 -40 -56 -217
-73 -263 -119 -318 -265 -556 -476 -775 -75 -78 -195 -184 -259 -230 -27 -19
-48 -38 -48 -43 0 -5 -4 -7 -9 -3 -5 3 -12 1 -16 -5 -3 -5 -50 -35 -103 -66
-53 -32 -108 -64 -122 -73 -14 -8 -28 -16 -31 -16 -3 0 -35 -13 -70 -29 -35
-16 -73 -33 -84 -37 -26 -11 -79 -32 -85 -34 -3 -1 -39 -12 -80 -24 -107 -33
-164 -47 -250 -61 -41 -7 -84 -14 -95 -16 -118 -22 -449 -21 -580 1 -45 8
-147 26 -170 31 -48 9 -257 74 -328 103 -96 39 -226 103 -295 147 -29 19 -57
34 -62 34 -6 0 -10 5 -10 10 0 6 -5 10 -11 10 -6 0 -28 14 -49 30 -21 16 -41
30 -44 30 -3 0 -14 8 -25 17 -10 10 -38 34 -62 53 -49 38 -299 286 -299 295 0
5 -56 81 -70 95 -28 28 -170 263 -170 281 0 5 -4 9 -10 9 -5 0 -9 3 -8 8 1 8
-5 24 -51 125 -17 38 -31 72 -31 77 0 4 -8 25 -17 46 -9 22 -18 44 -19 49 -1
6 -14 54 -29 107 -53 198 -70 328 -69 553 0 184 11 307 39 435 4 14 8 36 11
50 38 189 169 493 293 680 52 78 158 220 180 240 4 3 43 44 88 91 46 48 83 85
83 83 0 -2 8 4 18 14 58 58 257 202 342 248 19 10 42 24 50 30 33 23 240 114
330 144 296 99 575 132 891 106z"/>
<path d="M2751 4065 c-75 -23 -110 -69 -142 -185 -9 -36 -24 -90 -33 -120 -8
-30 -29 -107 -46 -170 -48 -178 -74 -272 -123 -450 -80 -287 -219 -794 -222
-810 -2 -8 -29 -105 -60 -215 -30 -110 -57 -207 -59 -215 -1 -8 -10 -40 -20
-71 -33 -110 -36 -134 -26 -191 5 -24 11 -73 14 -108 4 -36 9 -78 11 -95 11
-69 14 -93 21 -160 3 -38 8 -72 9 -75 2 -3 6 -37 10 -75 8 -79 18 -105 41
-105 19 0 28 11 184 210 66 85 148 191 183 234 34 44 62 82 63 85 0 4 3 13 7
21 10 27 169 594 193 690 2 8 11 42 20 75 9 33 18 67 20 75 2 8 15 56 29 105
26 94 72 258 85 310 8 29 31 112 105 380 20 72 38 137 40 145 1 8 10 40 18 70
120 434 120 435 91 493 -36 70 -62 86 -207 127 -139 38 -156 40 -206 25z"/>
<path d="M1610 3554 c-49 -17 -86 -43 -171 -115 -30 -26 -92 -79 -139 -119
-166 -142 -193 -165 -204 -175 -13 -12 -156 -137 -205 -180 -67 -58 -166 -151
-234 -219 -80 -80 -98 -116 -98 -197 0 -39 28 -119 42 -119 5 0 9 -5 9 -11 0
-7 10 -20 23 -31 59 -52 154 -136 183 -163 17 -16 49 -45 70 -64 44 -39 213
-191 230 -206 44 -41 181 -163 198 -178 27 -24 176 -158 191 -174 7 -7 15 -9
19 -6 3 4 6 1 6 -5 0 -16 56 -50 105 -63 160 -44 311 59 320 219 3 62 -17 137
-47 172 -10 11 -18 23 -18 26 0 3 -7 12 -15 20 -8 9 -15 13 -15 11 0 -2 -22
16 -48 42 -56 54 -221 204 -232 211 -13 8 -190 170 -247 226 -47 45 -53 56
-53 92 0 46 -2 44 197 230 202 188 373 352 383 367 3 4 20 23 37 42 62 65 73
182 25 266 -56 98 -193 143 -312 101z"/>
<path d="M3297 3556 c-60 -17 -115 -60 -147 -117 -32 -58 -33 -155 0 -220 26
-52 155 -179 594 -588 101 -94 99 -132 -10 -237 -41 -39 -75 -69 -77 -67 -2 1
-15 -9 -29 -24 -13 -16 -52 -52 -86 -82 -34 -29 -74 -65 -90 -80 -15 -14 -61
-55 -102 -91 -197 -173 -231 -225 -227 -348 2 -59 8 -77 37 -126 29 -48 45
-62 95 -87 63 -30 146 -45 199 -35 17 4 54 27 81 52 28 25 84 75 125 112 41
37 102 92 135 122 33 30 99 89 145 130 46 41 91 82 100 90 9 8 54 49 100 90
47 41 87 77 90 80 3 4 50 46 105 95 155 138 164 147 192 194 37 62 37 150 1
212 -23 38 -216 239 -230 239 -3 0 -25 19 -49 43 -45 43 -143 130 -234 207
-27 23 -77 66 -109 94 -72 62 -82 71 -142 121 -26 22 -79 67 -118 101 -87 74
-121 97 -166 113 -54 19 -130 22 -183 7z"/>
</g>
</svg>
