<svg version="1.1" id="Layer_1" xmlns="http://www.w3.org/2000/svg" xmlns:xlink="http://www.w3.org/1999/xlink" x="0px" y="0px"
	 width="100%" viewBox="0 0 646 646" enable-background="new 0 0 646 646" xml:space="preserve">
<path fill="#FEFEFE" opacity="1.000000" stroke="none" 
	d="
M647.000000,217.000000 
	C647.000000,359.166656 646.982727,500.833282 647.094055,642.499878 
	C647.096985,646.249207 646.249451,647.095398 642.500000,647.093567 
	C430.166779,646.988464 217.833481,646.988464 5.500238,647.093445 
	C1.751423,647.095337 0.904584,646.249878 0.906440,642.500122 
	C1.011552,430.166901 1.011541,217.833603 0.906531,5.500353 
	C0.904677,1.751838 1.749701,0.904562 5.499737,0.906418 
	C217.832977,1.011549 430.166290,1.011527 642.499512,0.906553 
	C646.247742,0.904700 647.102783,1.748418 647.095825,5.499753 
	C646.965515,75.832993 647.000000,146.166519 647.000000,217.000000 
z"/>
<path fill="#040708" opacity="1.000000" stroke="none" 
	d="
M519.141602,68.868378 
	C561.907654,102.061523 594.517761,142.899521 616.665527,191.939926 
	C632.561096,227.136261 641.959167,264.017822 644.219971,302.631287 
	C649.367065,390.539764 623.538208,468.343811 565.998352,534.823120 
	C514.009277,594.889282 448.014618,631.145203 369.205414,641.916992 
	C270.731140,655.376526 183.450150,628.829346 109.014099,563.024963 
	C55.033180,515.303711 21.077162,455.242096 8.118290,384.302399 
	C-9.919627,285.558990 12.955494,196.455704 76.507217,118.852852 
	C125.665886,58.825321 189.356476,21.608091 265.866608,8.073825 
	C358.712769,-8.350200 443.158691,12.395202 519.141602,68.868378 
z"/>
<path fill="#0093DD" opacity="1.000000" stroke="none" 
	d="
M561.918091,120.091995 
	C600.629456,165.805145 625.310547,217.874451 633.558899,276.786774 
	C647.400696,375.648193 620.832336,462.969818 553.634705,536.926086 
	C506.637085,588.650574 447.736908,620.243408 379.032593,632.717529 
	C214.644516,662.564148 55.547615,557.332153 18.013639,394.370789 
	C-20.121042,228.801392 80.281906,61.202278 245.326797,20.811951 
	C369.298920,-9.526903 475.427307,25.478094 561.918091,120.091995 
z"/>
<path fill="#050708" opacity="1.000000" stroke="none" 
	d="
M579.017700,426.994568 
	C545.379333,504.095459 489.619537,557.984741 409.692841,582.828552 
	C301.892456,616.336304 206.213730,591.776794 125.909904,512.594421 
	C83.639793,470.914673 59.278683,419.087280 50.940125,360.204559 
	C33.844044,239.480682 95.971207,123.746460 205.870148,71.300987 
	C249.150116,50.647118 294.963318,41.921616 342.717896,45.281242 
	C468.877686,54.156830 569.053711,144.972992 594.081299,263.108582 
	C605.947632,319.119995 600.818665,373.650116 579.017700,426.994568 
z"/>
<path fill="#FEFEFE" opacity="1.000000" stroke="none" 
	d="
M213.086975,564.998535 
	C129.764420,524.858765 78.093575,459.828979 60.456757,369.517151 
	C33.169388,229.788239 123.361046,92.560120 262.551178,59.809578 
	C388.627960,30.144524 517.591736,94.346710 569.747925,212.741791 
	C638.194336,368.115601 546.569519,547.342407 380.283173,583.044373 
	C322.785004,595.389282 267.125061,589.092224 213.086975,564.998535 
z"/>
<path fill="#060603" opacity="1.000000" stroke="none" 
	d="
M364.086670,307.173706 
	C351.347931,353.726562 338.659607,399.870239 326.055176,446.036835 
	C325.071991,449.637878 323.550049,452.767853 321.231964,455.711945 
	C305.780548,475.335938 290.442322,495.049042 275.060730,514.728088 
	C273.429596,516.815002 271.962402,519.364807 268.712402,518.666992 
	C265.205536,517.914062 264.920746,514.973694 264.555786,512.075806 
	C261.311249,486.313049 258.050323,460.552307 254.722580,434.800232 
	C254.411041,432.389313 254.905289,430.213806 255.527023,427.950043 
	C280.744171,336.130188 305.935364,244.303162 331.128052,152.476578 
	C335.573212,136.274017 347.212646,129.555405 363.397919,133.897858 
	C370.940247,135.921463 378.525238,137.815796 385.982971,140.118240 
	C398.455994,143.968994 405.481598,156.273605 402.066193,168.816864 
	C389.537201,214.830475 376.810608,260.790283 364.086670,307.173706 
z"/>
<path fill="#080604" opacity="1.000000" stroke="none" 
	d="
M551.863525,292.142456 
	C556.899048,297.028534 561.819336,301.537262 566.406189,306.362976 
	C580.556152,321.249878 579.761414,338.292786 564.359802,352.165649 
	C546.287598,368.444122 528.175720,384.678589 510.078369,400.929138 
	C489.257385,419.625397 468.060394,437.926544 447.802124,457.213715 
	C440.146332,464.502502 432.033905,465.175201 423.058685,463.587616 
	C409.715637,461.227386 399.402863,454.463226 395.537201,440.679199 
	C391.403900,425.940704 395.650940,413.256805 406.758942,403.122192 
	C429.401764,382.463501 452.309814,362.095612 475.090302,341.587616 
	C484.927795,332.731506 484.827881,326.116608 475.026306,317.060608 
	C451.777710,295.580475 428.664490,273.956238 406.007202,251.848907 
	C400.105377,246.090332 396.028290,239.404541 394.970459,231.120758 
	C391.283081,202.245483 420.843353,190.000885 442.306244,199.355865 
	C449.174591,202.349564 454.495148,207.407715 460.063538,212.127777 
	C490.940552,238.300873 521.910156,264.369537 551.863525,292.142456 
z"/>
<path fill="#090604" opacity="1.000000" stroke="none" 
	d="
M83.960602,349.036621 
	C73.078033,340.122345 68.304688,329.377686 72.220589,315.693726 
	C73.832817,310.059875 77.716866,305.894989 81.729904,301.861237 
	C99.832741,283.664764 119.277740,266.938232 138.647614,250.141754 
	C156.005569,235.089890 173.590286,220.298553 191.137833,205.466644 
	C201.513046,196.697083 213.388260,193.570175 226.527237,197.474106 
	C248.899109,204.121368 255.364639,230.276672 238.892624,247.933609 
	C231.292465,256.080505 223.006592,263.597321 214.897186,271.257507 
	C199.402481,285.893890 183.804382,300.420776 168.263519,315.008331 
	C160.563324,322.236145 160.581818,329.210999 168.394684,336.250305 
	C190.660950,356.311859 212.949265,376.349030 235.251724,396.370361 
	C245.896667,405.926544 250.670105,417.768524 247.538879,431.790558 
	C242.324661,455.140320 213.948868,464.015717 194.720917,448.258148 
	C183.399872,438.980469 172.791367,428.831543 161.891022,419.042603 
	C135.998810,395.790100 110.123604,372.518677 83.960602,349.036621 
z"/>
<path fill="#FCFC00" opacity="1.000000" stroke="none" 
	d="
M314.893921,247.878128 
	C317.935547,236.743668 321.000488,226.034439 323.789795,215.253891 
	C324.498749,212.513885 325.251801,211.728271 328.144043,212.722473 
	C333.007568,214.394333 338.006592,215.753815 343.038269,216.822861 
	C345.886719,217.428070 345.921631,218.504776 345.217896,220.929123 
	C342.623260,229.867615 340.360260,238.902069 337.796295,247.849930 
	C336.779175,251.399567 337.040100,254.455246 340.921143,255.473587 
	C344.701691,256.465576 346.137512,253.579391 346.981873,250.444046 
	C349.358612,241.618958 351.837402,232.820084 354.091431,223.963913 
	C354.822784,221.090347 356.029541,220.178207 358.955261,221.127426 
	C363.378052,222.562378 367.857330,223.896515 372.399536,224.866196 
	C375.818512,225.596069 376.429199,226.838287 375.469757,230.293488 
	C364.087158,271.285248 352.912109,312.334625 341.650421,353.360016 
	C333.818970,381.889313 325.884552,410.390533 318.148926,438.945679 
	C317.223816,442.360657 316.250824,443.652863 312.513397,442.195343 
	C308.510376,440.634277 304.247742,439.584991 300.006134,438.833252 
	C295.813843,438.090271 295.830383,436.227692 296.820892,432.649963 
	C311.412994,379.943848 325.843536,327.193024 340.316193,274.453827 
	C340.491974,273.813293 340.782959,273.198883 340.907562,272.550659 
	C341.522675,269.350891 342.233521,265.863251 337.882843,264.879395 
	C333.744995,263.943726 332.571350,266.929901 331.652008,270.281586 
	C317.142670,323.178162 302.488434,376.035309 288.147736,428.977417 
	C286.742676,434.164459 284.982574,435.320526 280.149719,433.278107 
	C276.659180,431.802948 272.858337,430.931976 269.113861,430.227173 
	C265.895264,429.621307 265.169464,428.333893 266.040894,425.183868 
	C282.350159,366.229034 298.573547,307.250488 314.893921,247.878128 
z"/>
<path fill="#FC00FC" opacity="1.000000" stroke="none" 
	d="
M349.515869,182.472321 
	C344.971771,181.192520 340.820465,180.003555 336.627319,178.987213 
	C334.547150,178.483017 334.096008,177.670090 334.728821,175.513290 
	C337.018158,167.710922 338.864960,159.776672 341.232788,151.999985 
	C343.535583,144.436966 350.899841,140.430603 358.566437,142.394760 
	C366.764130,144.494980 374.937653,146.709686 383.050934,149.113281 
	C390.234406,151.241394 394.552948,157.520203 393.077850,164.770660 
	C391.327942,173.371811 388.658203,181.785156 386.409271,190.285767 
	C385.619965,193.269211 383.696899,191.846802 382.083710,191.409866 
	C371.348175,188.502335 360.621185,185.563217 349.515869,182.472321 
z"/>
<path fill="#9F5100" opacity="1.000000" stroke="none" 
	d="
M265.371307,442.853210 
	C265.007050,440.525482 264.457031,438.769592 267.800354,439.728363 
	C281.204895,443.572540 294.660065,447.244568 308.135559,450.833618 
	C311.297058,451.675690 311.441193,452.728912 309.495514,455.150482 
	C303.245148,462.929810 297.056183,470.763062 291.052734,478.733154 
	C289.318939,481.034943 287.565948,481.476501 285.083923,480.545135 
	C283.842346,480.079285 282.554657,479.729797 281.275696,479.371063 
	C269.032593,475.937073 269.128082,475.930878 267.939514,463.010712 
	C267.331879,456.405579 266.307831,449.838715 265.371307,442.853210 
z"/>
<path fill="#006432" opacity="1.000000" stroke="none" 
	d="
M329.806580,203.118073 
	C326.385132,201.201752 328.375763,198.879715 328.947540,196.883652 
	C331.695648,187.289780 331.716370,187.420654 341.271912,190.138641 
	C353.881805,193.725403 366.512756,197.253403 379.216248,200.485962 
	C382.769714,201.390167 383.259644,202.612030 382.201355,205.963272 
	C378.831970,216.632690 378.945099,216.774811 368.076874,213.827667 
	C355.422028,210.396072 342.819763,206.770538 329.806580,203.118073 
z"/>
<path fill="#F16101" opacity="1.000000" stroke="none" 
	d="
M504.932922,394.930786 
	C483.503723,414.218536 462.254150,433.176208 441.231750,452.382538 
	C437.975433,455.357574 434.662872,456.454285 430.501923,456.406555 
	C412.552246,456.200500 400.901917,445.102875 402.018066,428.961914 
	C402.583496,420.785736 406.209564,414.064758 412.329865,408.575623 
	C435.265991,388.005035 458.149780,367.376129 481.045532,346.760529 
	C493.116547,335.891602 493.142578,323.055420 481.175812,312.021851 
	C457.666534,290.345856 434.323395,268.494080 411.422729,246.172348 
	C407.124542,241.982803 403.977173,237.188858 402.969971,231.233429 
	C400.175507,214.709854 412.670044,202.240570 430.017334,204.217575 
	C435.916351,204.889862 441.451813,206.791000 446.013367,210.652481 
	C484.521576,243.250397 523.497009,275.319092 559.640808,310.607025 
	C564.666992,315.514252 568.692810,320.812256 568.469482,328.335815 
	C568.269897,335.060150 565.573364,340.509430 560.598450,344.965210 
	C542.113403,361.521301 523.655273,378.107422 504.932922,394.930786 
z"/>
<path fill="#F16101" opacity="1.000000" stroke="none" 
	d="
M231.485840,208.358673 
	C242.739594,217.864273 243.122864,232.928925 232.163666,243.638977 
	C216.557068,258.890808 200.638184,273.823761 184.805893,288.843597 
	C177.676010,295.607635 170.448288,302.268951 163.237839,308.947601 
	C151.727448,319.609039 151.810349,331.951233 163.507706,342.471039 
	C185.801117,362.520325 208.140259,382.519012 230.379135,402.628540 
	C239.292587,410.688568 242.943573,420.655579 239.238266,432.380646 
	C234.017639,448.900696 212.614639,453.580139 198.499191,441.302765 
	C186.938019,431.247070 175.651749,420.875183 164.248886,410.637634 
	C138.963455,387.936157 113.692818,365.218170 88.391693,342.534180 
	C79.338005,334.416992 76.523666,325.859589 80.115967,316.903656 
	C81.645126,313.091278 84.445457,310.204987 87.280342,307.392639 
	C109.770157,285.081512 133.906616,264.598236 157.892853,243.952393 
	C170.391693,233.194168 182.985367,222.545242 195.601120,211.924026 
	C206.815430,202.482712 218.772354,201.269424 231.485840,208.358673 
z"/>
</svg>